<?xml version="1.0" encoding="iso-8859-1"?>
<!-- Generator: Adobe Illustrator 21.0.0, SVG Export Plug-In . SVG Version: 6.00 Build 0)  -->
<svg version="1.1" id="Layer_1" xmlns="http://www.w3.org/2000/svg" xmlns:xlink="http://www.w3.org/1999/xlink" x="0px" y="0px"
	 viewBox="-49 141 512 512" style="enable-background:new -49 141 512 512;" xml:space="preserve">
<path style="fill:#FF6464;" d="M463,543.282c0,16.716-13.55,30.267-30.265,30.267h-451.47C-35.45,573.549-49,559.996-49,543.282
	V250.717c0-16.716,13.55-30.266,30.265-30.266h451.469c16.716,0,30.265,13.551,30.265,30.266v292.565H463z"/>
<rect x="-49" y="449.179" style="fill:#602929;" width="512" height="72.014"/>
<path style="opacity:0.15;fill:#202121;enable-background:new    ;" d="M-27.483,543.282V250.717
	c0-16.716,13.552-30.266,30.267-30.266h-21.52C-35.45,220.451-49,234.003-49,250.717v292.565c0,16.716,13.55,30.267,30.265,30.267
	h21.52C-13.93,573.549-27.483,559.996-27.483,543.282z"/>
<g>
	<g>
		<g>
			<path style="fill:#FFFFFF;" d="M15.721,373.258H-1.764l-7.134-19.478h-1.375l-4.136,19.478h-16.064l11.671-55.234h14.867
				c3.136,0,5.948,0.316,8.358,0.94c2.455,0.635,4.571,1.608,6.288,2.893c2.81,2.099,4.506,5.112,5.04,8.954l0.136,0.979h-1.595
				l1.033,7.143l-0.044,0.168c-0.453,1.746-1.145,3.381-2.055,4.861c-1.67,2.747-4.134,4.919-7.33,6.464l7.866,18.13L15.721,373.258
				z M-0.562,371.536h13.701l-0.963-2.314L3.64,349.549l0.788-0.343c3.246-1.415,5.712-3.481,7.33-6.143
				c0.794-1.291,1.403-2.712,1.813-4.23l-1.268-8.765h1.575c-0.598-2.931-1.978-5.173-4.199-6.833
				c-3.095-2.316-7.676-3.49-13.615-3.49h-13.471l-10.943,51.791h12.547l4.136-19.478h3.972L-0.562,371.536z M-6.798,342.909H-9.72
				l2.922-13.941h2.635c1.82,0,3.256,0.477,4.271,1.417l0.004,0.004c1.017,0.956,1.533,2.332,1.533,4.088
				c0,2.611-0.776,4.697-2.307,6.199l-0.006,0.006C-2.2,342.16-4.263,342.909-6.798,342.909z M-7.6,341.188h0.802
				c2.102,0,3.716-0.57,4.935-1.743c1.204-1.183,1.789-2.808,1.789-4.968c0-1.261-0.332-2.213-0.988-2.831
				c-0.686-0.634-1.728-0.956-3.099-0.956h-1.237L-7.6,341.188z"/>
		</g>
		<g>
			<path style="fill:#FFFFFF;" d="M67.339,373.994c-2.141,0-4.06-0.427-5.703-1.269c-1.375-0.716-2.756-1.878-4.118-3.464
				l-1.561,3.996H43.063l7.398-34.985l3.405-6.483h-2.034l3.64-17.214h15.929l-2.021,9.498c-0.596,2.755-1.272,5.293-2.021,7.585
				c0.172-0.155,0.335-0.291,0.49-0.411l0.006-0.005c0.795-0.603,1.697-1.075,2.68-1.403c0.974-0.337,2.127-0.508,3.426-0.508
				c4.051,0,7.213,1.491,9.399,4.433c2.136,2.874,3.219,6.994,3.219,12.245c0,0.087-0.003,0.168-0.006,0.246
				c-0.002,0.052-0.004,0.104-0.004,0.156l-0.002,0.129l-0.04,0.123c-1.105,3.445-1.68,6.883-1.71,10.219l-0.001,0.13l-0.039,0.123
				c-0.294,0.924-0.561,1.695-0.842,2.426c-1.769,4.615-4.098,8.198-6.924,10.649C74.132,372.721,70.877,373.994,67.339,373.994z
				 M56.569,366.963h1.308l0.258,0.332c1.448,1.86,2.891,3.172,4.291,3.9c1.393,0.714,3.047,1.077,4.913,1.077
				c3.11,0,5.984-1.131,8.543-3.361c2.611-2.265,4.779-5.618,6.446-9.967c0.256-0.667,0.502-1.372,0.77-2.208
				c0.045-3.429,0.634-6.953,1.753-10.479c0.001-0.021,0.001-0.041,0.002-0.062c0.002-0.062,0.004-0.125,0.004-0.187
				c0-4.873-0.969-8.648-2.879-11.218c-1.869-2.515-4.492-3.738-8.017-3.738c-1.109,0-2.073,0.139-2.867,0.415l-0.01,0.003
				c-0.805,0.268-1.54,0.652-2.186,1.142c-0.66,0.51-1.566,1.468-2.693,2.847l-0.258,0.316h-1.979l0.488-1.188
				c1.246-3.034,2.336-6.693,3.241-10.875l1.578-7.416H56.867l-2.912,13.771h2.759l-4.618,8.794l-6.909,32.674h9.595L56.569,366.963
				z M63.891,362.6c-1.303,0-2.313-0.659-2.921-1.905c-0.531-1.064-0.788-2.43-0.788-4.178c0-2.506,0.338-5.012,1.005-7.449
				c0.66-2.446,1.591-4.445,2.765-5.939c1.271-1.604,2.666-2.416,4.15-2.416c1.349,0,2.421,0.601,3.1,1.739
				c0.612,1.025,0.909,2.462,0.909,4.394c0,2.402-0.369,4.851-1.098,7.279c-0.717,2.422-1.7,4.44-2.921,5.996l-0.005,0.006
				C66.774,361.768,65.363,362.6,63.891,362.6z M68.102,342.435c-0.931,0-1.873,0.592-2.799,1.76
				c-1.028,1.308-1.855,3.1-2.455,5.324c-0.627,2.292-0.945,4.645-0.945,6.997c0,1.457,0.205,2.605,0.609,3.413l0.004,0.008
				c0.321,0.659,0.732,0.94,1.375,0.94c0.922,0,1.88-0.613,2.848-1.822c1.086-1.385,1.968-3.208,2.623-5.42l0.001-0.003
				c0.681-2.268,1.026-4.552,1.026-6.787c0-1.59-0.224-2.772-0.666-3.512C69.352,342.712,68.852,342.435,68.102,342.435z"/>
		</g>
		<g>
			<path style="fill:#FFFFFF;" d="M11.211,391.262c-2.326,0-4.298-0.216-5.861-0.642l-0.634-0.173v-13.023l1.083,0.289
				c1.029,0.275,2.26,0.408,3.764,0.408c1.979,0,3.532-0.391,4.748-1.194c1.223-0.804,2.34-2.111,3.319-3.884l0.004-0.008
				l0.704-1.243l-6.035-41.723h16.035l1.637,21.398l0.021,0.628c0.214-0.684,0.386-1.185,0.516-1.512
				c0.339-0.888,3.205-7.431,8.761-20.001l0.227-0.513h17.215l-25.188,47.964c-2.409,4.627-5.258,8.024-8.466,10.094
				C19.834,390.206,15.847,391.262,11.211,391.262z M6.437,389.113c1.311,0.284,2.913,0.427,4.774,0.427
				c4.3,0,7.972-0.963,10.916-2.861c2.954-1.906,5.603-5.084,7.874-9.445l23.865-45.445H40.62
				c-6.64,15.025-8.292,18.856-8.502,19.41l-0.006,0.014c-0.308,0.771-0.916,2.78-1.807,5.971l-0.176,0.629h-1.801v-4.032
				l-0.074-2.241l-1.512-19.752H14.292l5.835,40.338l-0.992,1.752c-1.116,2.018-2.42,3.526-3.876,4.484
				c-1.484,0.98-3.401,1.478-5.695,1.478c-1.172,0-2.205-0.076-3.125-0.233V389.113z"/>
		</g>
		<g>
			<path style="fill:#FFFFFF;" d="M134.416,373.258h-15.928l12.408-58.682h15.928L134.416,373.258z M120.611,371.536h12.409
				l11.68-55.239h-12.409L120.611,371.536z"/>
		</g>
		<g>
			<path style="fill:#FFFFFF;" d="M178.972,373.258h-17.971l-4.955-13.954l-2.458,1.295l-2.583,12.658h-15.931l12.267-58.682h15.915
				l-5.304,25.322c-0.214,0.97-0.538,2.165-0.979,3.604c1.027-1.359,2.011-2.542,2.944-3.538l9.112-9.896h18.575l-18.964,19.782
				L178.972,373.258z M162.217,371.536h14.114l-9.732-22.045l16.969-17.701h-13.785l-8.608,9.349
				c-1.671,1.784-3.524,4.208-5.507,7.208l-0.255,0.386h-1.998l0.397-1.143c1.257-3.618,2.061-6.254,2.458-8.057l4.867-23.235
				H148.74l-11.547,55.239h12.406l2.465-12.08l4.938-2.603L162.217,371.536z"/>
		</g>
		<g>
			<path style="fill:#FFFFFF;" d="M188.626,373.846c-4.128,0-7.316-1.493-9.477-4.437c-2.101-2.862-3.166-6.981-3.166-12.241
				c0-4.467,0.92-9.067,2.734-13.672c1.825-4.646,4.176-8.224,6.988-10.633c2.879-2.443,6.105-3.68,9.593-3.68
				c2.183,0,4.149,0.502,5.844,1.492c1.372,0.802,2.623,2.013,3.73,3.611l1.65-4.366h13.002l-9.148,43.19h-12.938l0.248-3.079
				c-1.044,1.112-2.147,1.958-3.293,2.527C192.698,373.412,190.756,373.846,188.626,373.846z M195.298,330.905
				c-3.069,0-5.92,1.1-8.476,3.269c-2.592,2.222-4.781,5.571-6.503,9.954c-1.735,4.404-2.614,8.791-2.614,13.042
				c0,4.886,0.953,8.662,2.832,11.223c1.844,2.513,4.49,3.734,8.089,3.734c1.885,0,3.52-0.362,4.998-1.107
				c1.447-0.718,2.833-1.986,4.125-3.772l0.258-0.356h1.66l-0.362,4.498h9.677l8.419-39.747h-9.688l-1.936,5.123h-1.389
				l-0.249-0.427c-1.13-1.934-2.43-3.339-3.864-4.176C198.846,331.327,197.172,330.905,195.298,330.905z M194.448,362.6
				c-1.348,0-2.419-0.595-3.098-1.72c-0.613-1.016-0.911-2.443-0.911-4.363c0-3.909,0.79-7.504,2.349-10.686
				c0.792-1.631,1.657-2.887,2.569-3.729c0.998-0.922,2.083-1.389,3.227-1.389c1.353,0,2.405,0.664,3.042,1.921
				c0.551,1.088,0.83,2.505,0.83,4.212c0,2.342-0.347,4.785-1.03,7.262c-0.676,2.484-1.618,4.511-2.8,6.025
				C197.347,361.77,195.942,362.6,194.448,362.6z M198.584,342.435c-1.481,0-2.911,1.396-4.249,4.151
				c-1.443,2.947-2.175,6.287-2.175,9.931c0,4.362,1.662,4.362,2.288,4.362c0.949,0,1.871-0.591,2.82-1.805
				c1.041-1.333,1.881-3.156,2.497-5.419l0.001-0.003c0.643-2.328,0.969-4.617,0.969-6.805c0-1.435-0.217-2.59-0.644-3.434
				C199.747,342.736,199.283,342.435,198.584,342.435z"/>
		</g>
		<g>
			<path style="fill:#FFFFFF;" d="M226.85,373.994c-2.733,0-5.363-0.311-7.818-0.925c-2.471-0.621-4.641-1.543-6.451-2.741
				l-0.386-0.255v-14.826l1.319,0.828c1.982,1.245,4.291,2.313,6.862,3.174c2.545,0.84,4.876,1.267,6.923,1.267
				c1.599,0,2.794-0.316,3.551-0.94l0.005-0.004c0.719-0.583,1.068-1.414,1.068-2.542c0-0.52-0.115-1.009-0.341-1.454
				c-0.268-0.512-0.643-1.028-1.113-1.531c-0.509-0.545-1.931-1.792-4.227-3.707c-2.944-2.366-5.109-4.82-6.435-7.294
				c-1.36-2.498-2.051-5.285-2.051-8.278c0-3.348,0.851-6.403,2.531-9.078c1.678-2.674,4.076-4.774,7.128-6.24
				c3.018-1.457,6.439-2.197,10.169-2.197c5.949,0,11.387,1.357,16.163,4.033l0.691,0.387l-5.65,12.413l-0.803-0.414
				c-4.03-2.076-7.479-3.128-10.251-3.128c-1.363,0-2.395,0.279-3.065,0.829c-0.637,0.523-0.947,1.287-0.947,2.333
				c0,1,0.34,1.921,1.039,2.815c0.788,0.99,2.306,2.338,4.512,4.004c2.954,2.184,5.182,4.521,6.622,6.947
				c1.465,2.459,2.207,5.318,2.207,8.498c0,5.663-1.911,10.139-5.68,13.303C238.689,372.405,233.45,373.994,226.85,373.994z
				 M213.918,369.14c1.569,0.971,3.428,1.731,5.534,2.26c2.317,0.579,4.807,0.873,7.399,0.873c6.183,0,11.05-1.454,14.464-4.321
				c3.361-2.822,5.065-6.855,5.065-11.985c0-2.906-0.643-5.398-1.965-7.618l-0.001-0.001c-1.323-2.229-3.398-4.397-6.169-6.444
				l-0.007-0.005c-2.325-1.757-3.949-3.207-4.827-4.312l-0.004-0.005c-0.934-1.193-1.408-2.498-1.408-3.879
				c0-1.572,0.53-2.805,1.576-3.664c0.987-0.81,2.385-1.22,4.157-1.22c2.855,0,6.294,0.98,10.232,2.913l4.245-9.325
				c-4.347-2.281-9.264-3.436-14.627-3.436c-3.468,0-6.638,0.682-9.421,2.026c-2.756,1.325-4.914,3.21-6.417,5.605
				c-1.504,2.397-2.267,5.144-2.267,8.163c0,2.703,0.621,5.212,1.844,7.46c1.22,2.275,3.24,4.553,6.005,6.775l0.012,0.01
				c2.387,1.991,3.822,3.253,4.388,3.859c0.578,0.618,1.043,1.262,1.384,1.913l0.003,0.007c0.353,0.691,0.532,1.444,0.532,2.241
				c0,1.656-0.573,2.96-1.703,3.878c-1.073,0.883-2.635,1.331-4.643,1.331c-2.231,0-4.743-0.456-7.466-1.355
				c-2.155-0.722-4.138-1.584-5.916-2.571V369.14z"/>
		</g>
		<g>
			<path style="fill:#FFFFFF;" d="M283.015,373.258h-15.926l4.943-23.681c0.425-1.845,0.64-3.529,0.64-5.005
				c0-0.8-0.186-1.388-0.553-1.746c-0.379-0.37-0.803-0.542-1.335-0.542c-1.219,0-2.283,0.747-3.253,2.285
				c-1.069,1.694-1.969,4.305-2.676,7.759l-4.393,20.929h-15.929l12.409-58.682h15.929l-2.16,10.169
				c-0.576,2.571-1.25,4.984-2.015,7.21c2.276-1.743,5.033-2.624,8.235-2.624c3.665,0,6.589,1.148,8.689,3.411
				c2.068,2.243,3.116,5.348,3.116,9.232c0,2.656-0.313,5.535-0.93,8.556L283.015,373.258z M269.207,371.536h12.411l4.504-21.356
				c0.593-2.902,0.894-5.665,0.894-8.206c0-3.437-0.894-6.15-2.659-8.063c-1.785-1.923-4.214-2.859-7.426-2.859
				c-3.947,0-6.995,1.437-9.319,4.394l-0.258,0.329h-2.003l0.505-1.196c1.257-2.976,2.325-6.41,3.175-10.206l1.715-8.077h-12.408
				l-11.681,55.239h12.408l4.105-19.556c0.747-3.655,1.725-6.458,2.905-8.329c1.293-2.049,2.877-3.088,4.709-3.088
				c0.983,0,1.837,0.347,2.538,1.032c0.711,0.694,1.072,1.696,1.072,2.977c0,1.603-0.229,3.414-0.682,5.382L269.207,371.536z"/>
		</g>
		<g>
			<path style="fill:#FFFFFF;" d="M302.624,373.994c-5.306,0-9.478-1.476-12.401-4.386c-2.929-2.916-4.414-7.102-4.414-12.442
				c0-5.221,1.007-10.018,2.992-14.258c1.99-4.25,4.847-7.615,8.492-10.001c3.645-2.374,7.939-3.577,12.766-3.577
				c5.314,0,9.49,1.476,12.414,4.386c2.929,2.916,4.414,7.098,4.414,12.429c0,5.221-1.007,10.018-2.992,14.258l-0.001,0.002
				c-2.016,4.279-4.874,7.643-8.492,10C311.766,372.787,307.467,373.994,302.624,373.994z M310.058,331.052
				c-4.487,0-8.466,1.109-11.825,3.297c-3.371,2.207-6.021,5.333-7.874,9.289c-1.878,4.01-2.83,8.561-2.83,13.528
				c0,4.865,1.315,8.641,3.907,11.222c2.589,2.578,6.353,3.885,11.187,3.885c4.502,0,8.484-1.113,11.835-3.308
				c3.349-2.181,5.998-5.307,7.876-9.292c1.877-4.009,2.829-8.561,2.829-13.526c0-4.857-1.315-8.628-3.907-11.209
				C318.668,332.36,314.9,331.052,310.058,331.052z M304.198,363.375c-1.316,0-2.365-0.56-3.033-1.62
				c-0.606-0.961-0.901-2.307-0.901-4.114c0-4.491,0.746-8.538,2.216-12.029c0.752-1.794,1.606-3.174,2.539-4.1
				c1.019-1.012,2.159-1.524,3.389-1.524c1.263,0,2.307,0.553,3.021,1.598c0.665,0.962,0.988,2.311,0.988,4.123
				c0,4.521-0.759,8.579-2.256,12.06l-0.002,0.003c-0.79,1.815-1.634,3.15-2.579,4.082
				C306.557,362.863,305.419,363.375,304.198,363.375z M308.409,341.71c-1.61,0-3.07,1.537-4.341,4.57
				c-1.382,3.28-2.082,7.102-2.082,11.362c0,4.012,1.607,4.012,2.213,4.012c1.588,0,3.063-1.536,4.382-4.565
				c1.404-3.265,2.116-7.093,2.116-11.379c0-1.432-0.23-2.49-0.684-3.146l-0.004-0.005
				C309.615,341.979,309.106,341.71,308.409,341.71z"/>
		</g>
		<g>
			<path style="fill:#FFFFFF;" d="M333.178,391.262h-15.931l12.958-61.194h12.95l-0.288,3.059c2.31-2.521,5.206-3.796,8.638-3.796
				c4.064,0,7.308,1.484,9.644,4.409c2.289,2.867,3.449,6.823,3.449,11.757c0,5.029-0.886,9.843-2.633,14.307
				c-1.738,4.487-4.105,8.005-7.034,10.454c-2.981,2.48-6.277,3.736-9.798,3.736c-3.202,0-5.907-1.373-8.06-4.087
				c-0.351,3.529-0.985,7.446-1.893,11.676L333.178,391.262z M319.371,389.54h12.405l1.721-8.316
				c1.068-4.978,1.751-9.507,2.032-13.461l0.057-0.8h1.573l0.251,0.414c2.002,3.294,4.528,4.896,7.723,4.896
				c3.152,0,5.996-1.091,8.695-3.336c2.701-2.259,4.899-5.542,6.532-9.757c1.67-4.266,2.516-8.869,2.516-13.682
				c0-4.534-1.034-8.128-3.073-10.683c-2.02-2.531-4.735-3.762-8.298-3.762c-3.669,0-6.523,1.634-8.725,4.996l-0.255,0.389h-1.698
				l0.437-4.648h-9.664L319.371,389.54z M342.285,362.6c-1.33,0-2.412-0.639-3.127-1.847c-0.635-1.073-0.957-2.499-0.957-4.237
				c0-2.505,0.338-5.012,1.005-7.449c0.66-2.446,1.591-4.445,2.765-5.939c1.271-1.604,2.667-2.416,4.15-2.416
				c1.349,0,2.421,0.601,3.1,1.739c0.611,1.025,0.909,2.462,0.909,4.394c0,2.523-0.347,5.028-1.032,7.444l-0.001,0.003
				c-0.7,2.437-1.632,4.418-2.771,5.887C345.095,361.785,343.734,362.6,342.285,362.6z M346.121,342.435
				c-0.931,0-1.873,0.592-2.799,1.761c-1.028,1.308-1.855,3.1-2.455,5.324c-0.627,2.292-0.945,4.645-0.945,6.997
				c0,1.425,0.241,2.556,0.717,3.36c0.405,0.684,0.928,1.002,1.646,1.002c0.886,0,1.787-0.589,2.678-1.75
				c1.006-1.298,1.839-3.084,2.479-5.31c0.641-2.263,0.966-4.609,0.966-6.972c0-1.59-0.224-2.772-0.665-3.512
				C347.372,342.712,346.871,342.435,346.121,342.435z"/>
		</g>
		<g>
			<path style="fill:#FFFFFF;" d="M365.392,374.17c-2.098,0-3.826-0.515-5.137-1.53c-1.389-1.064-2.096-2.71-2.096-4.891
				c0-2.897,0.889-5.213,2.641-6.883c1.749-1.666,4.156-2.511,7.153-2.511c2.245,0,4.057,0.559,5.385,1.66l0.007,0.006
				c1.362,1.157,2.053,2.794,2.053,4.866c0,3.128-0.832,5.484-2.473,7.002C371.292,373.424,368.827,374.17,365.392,374.17z
				 M367.953,360.076c-2.54,0-4.547,0.685-5.966,2.036c-1.418,1.351-2.107,3.194-2.107,5.636c0,1.639,0.466,2.793,1.424,3.527
				c1.006,0.779,2.38,1.172,4.087,1.172c2.937,0,5.076-0.611,6.357-1.815l0.005-0.005c1.275-1.178,1.922-3.11,1.922-5.74
				c0-1.564-0.472-2.725-1.442-3.551C371.224,360.5,369.784,360.076,367.953,360.076z"/>
		</g>
		<g>
			<path style="fill:#FFFFFF;" d="M413.603,373.994c-3.67,0-6.59-1.148-8.679-3.413c-2.074-2.235-3.126-5.332-3.126-9.205
				c0-2.615,0.317-5.493,0.942-8.555l2.07-9.825l0.858,0.202c0.252,0.059,0.489,0.121,0.712,0.186l2.917-13.316h14.149
				l-4.944,23.632c-0.441,1.908-0.665,3.579-0.665,4.966c0,0.825,0.185,1.416,0.551,1.757c0.389,0.362,0.822,0.531,1.362,0.531
				c1.127,0,2.204-0.828,3.201-2.461l0.003-0.006c1.136-1.83,2.053-4.377,2.725-7.57l4.392-20.849H446l-9.109,43.19h-12.977
				l0.326-3.973c-1.039,1.285-2.206,2.301-3.487,3.035C418.797,373.431,416.392,373.994,413.603,373.994z M406.125,345.105
				l-1.699,8.066c-0.601,2.944-0.906,5.706-0.906,8.206c0,3.424,0.898,6.127,2.669,8.036c1.751,1.899,4.245,2.86,7.415,2.86
				c2.487,0,4.606-0.488,6.297-1.449c1.683-0.963,3.156-2.525,4.378-4.642l0.248-0.431h1.731l-0.475,5.785h9.712l8.383-39.747
				h-12.409l-4.104,19.482c-0.713,3.387-1.704,6.119-2.945,8.12c-1.33,2.179-2.901,3.283-4.669,3.283
				c-0.975,0-1.829-0.334-2.536-0.993c-0.729-0.68-1.099-1.694-1.099-3.016c0-1.516,0.238-3.314,0.707-5.345l4.504-21.531h-10.645
				l-3.045,13.902l-0.946-0.384C406.516,345.237,406.328,345.17,406.125,345.105z"/>
		</g>
		<g>
			<path style="fill:#FFFFFF;" d="M389.882,373.258h-15.927l9.122-43.19h12.952l-0.471,4.918c1.212-1.635,2.488-2.871,3.859-3.745
				c1.973-1.266,4.58-1.909,7.747-1.909c1.452,0,2.494,0.107,3.186,0.328l0.747,0.238l-3.46,15.794l-0.946-0.384
				c-0.396-0.16-0.859-0.302-1.418-0.434c-0.901-0.212-1.803-0.315-2.756-0.315c-2.275,0-4.033,0.749-5.373,2.291
				c-1.406,1.605-2.493,4.129-3.232,7.503L389.882,373.258z M376.078,371.536h12.41l3.741-17.548
				c0.803-3.666,2.02-6.448,3.618-8.271c1.661-1.91,3.905-2.88,6.67-2.88c1.073,0,2.133,0.121,3.151,0.361
				c0.252,0.059,0.489,0.121,0.712,0.186l2.681-12.237c-0.435-0.055-1.045-0.094-1.896-0.094c-2.832,0-5.126,0.551-6.819,1.638
				c-1.722,1.098-3.363,2.975-4.881,5.581l-0.249,0.428h-1.742l0.662-6.909h-9.662L376.078,371.536z"/>
		</g>
		<g>
			<path style="fill:#FFFFFF;" d="M95.732,373.846c-4.128,0-7.316-1.493-9.477-4.437c-2.101-2.862-3.166-6.981-3.166-12.241
				c0-0.062,0.002-0.125,0.004-0.188c0.001-0.038,0.003-0.075,0.003-0.113c0.032-3.509,0.635-7.118,1.792-10.729
				c0.314-0.979,0.619-1.843,0.934-2.642c1.825-4.646,4.176-8.224,6.988-10.633c2.879-2.443,6.105-3.68,9.593-3.68
				c2.183,0,4.149,0.502,5.844,1.492c1.373,0.802,2.624,2.013,3.73,3.611l1.651-4.366h13.001l-9.148,43.19h-12.938l0.248-3.079
				c-1.044,1.112-2.147,1.958-3.293,2.527C99.804,373.412,97.862,373.846,95.732,373.846z M102.404,330.905
				c-3.069,0-5.921,1.1-8.476,3.269c-2.592,2.222-4.781,5.572-6.503,9.954c-0.301,0.765-0.595,1.595-0.897,2.538
				c-1.105,3.445-1.68,6.883-1.71,10.219c0,0.053-0.002,0.106-0.004,0.159c-0.002,0.042-0.003,0.084-0.003,0.126
				c0,4.886,0.953,8.662,2.832,11.223c1.844,2.513,4.49,3.734,8.089,3.734c1.885,0,3.519-0.362,4.998-1.107
				c1.447-0.718,2.833-1.986,4.125-3.772l0.258-0.356h1.66l-0.362,4.498h9.677l8.419-39.747h-9.687l-1.937,5.123h-1.389
				l-0.249-0.427c-1.129-1.933-2.429-3.339-3.864-4.176C105.952,331.327,104.278,330.905,102.404,330.905z M101.678,362.6
				c-1.348,0-2.419-0.595-3.098-1.72c-0.613-1.016-0.911-2.443-0.911-4.363c0-3.909,0.79-7.504,2.349-10.686
				c0.793-1.631,1.657-2.887,2.569-3.729c0.998-0.922,2.083-1.389,3.227-1.389c1.353,0,2.405,0.664,3.042,1.921
				c0.551,1.087,0.83,2.504,0.83,4.212c0,2.341-0.347,4.784-1.03,7.261c-0.676,2.484-1.619,4.511-2.801,6.025
				C104.576,361.77,103.171,362.6,101.678,362.6z M105.813,342.435c-1.481,0-2.91,1.397-4.249,4.151
				c-1.443,2.947-2.175,6.287-2.175,9.931c0,4.362,1.662,4.362,2.288,4.362c0.949,0,1.871-0.591,2.82-1.805
				c1.041-1.333,1.881-3.156,2.497-5.419l0.001-0.003c0.643-2.328,0.968-4.618,0.968-6.805c0-1.435-0.217-2.59-0.644-3.434
				C106.977,342.736,106.513,342.435,105.813,342.435z"/>
		</g>
	</g>
</g>
<g>
	<rect x="317.065" y="539.667" style="fill:none;" width="158.667" height="36.667"/>
	<path style="fill:#FFFFFF;" d="M320.305,540.385v5.98h0.541l4.62-5.98h2.101l-5.101,6.181c2.221,0.3,3.08,1.66,3.78,3.48
		c0.5,1.381,0.881,2.621,1.48,3.821h-1.88c-0.48-0.92-0.86-2.12-1.221-3.181c-0.62-1.78-1.48-3.001-3.761-3.001h-0.561v6.182h-1.72
		v-13.482H320.305z"/>
	<path style="fill:#FFFFFF;" d="M337.186,544.186v9.682h-1.74v-8.302h-3.32v2.521c0,2.721-0.261,4.541-1.521,5.361
		c-0.48,0.38-1.021,0.6-1.921,0.6l-0.18-1.38c0.34-0.061,0.72-0.2,0.96-0.4c0.9-0.66,1-2.021,1-4.181v-3.9H337.186z"/>
	<path style="fill:#FFFFFF;" d="M340.625,544.186l2.12,5.721c0.221,0.641,0.46,1.4,0.62,1.98h0.04c0.181-0.58,0.38-1.32,0.62-2.021
		l1.921-5.681h1.86l-2.641,6.901c-1.261,3.32-2.121,5.021-3.321,6.061c-0.859,0.761-1.72,1.061-2.16,1.141l-0.44-1.48
		c0.44-0.14,1.021-0.42,1.541-0.86c0.479-0.38,1.08-1.06,1.48-1.96c0.08-0.18,0.14-0.32,0.14-0.42c0-0.101-0.04-0.24-0.12-0.46
		l-3.581-8.922H340.625z"/>
	<path style="fill:#FFFFFF;" d="M356.886,540.904c-0.5,0.18-1.381,0.34-2.021,0.44c-1.561,0.24-2.701,0.76-3.441,1.82
		c-0.62,0.88-0.979,2.181-1.06,3.2h0.06c0.62-1.4,1.98-2.18,3.361-2.18c2.38,0,4.12,1.7,4.12,4.78c0,3.161-1.64,5.121-4.48,5.121
		c-3.401,0-4.521-3.261-4.521-6.481c0-2.2,0.461-4,1.501-5.36c0.939-1.341,2.28-1.961,4.16-2.281c0.78-0.12,1.741-0.279,2.401-0.52
		L356.886,540.904z M353.425,545.485c-1.04,0-1.78,0.54-2.181,1.32c-0.32,0.58-0.48,1.28-0.48,2.061c0,1.601,0.78,3.9,2.701,3.9
		c1.94,0,2.66-1.88,2.66-3.66C356.125,547.525,355.505,545.485,353.425,545.485z"/>
	<path style="fill:#FFFFFF;" d="M361.824,544.186v3.9h4.601v-3.9h1.74v9.682h-1.74v-4.381h-4.601v4.381h-1.741v-9.682H361.824z"/>
	<path style="fill:#FFFFFF;" d="M376.404,553.867l-0.14-1.221h-0.061c-0.54,0.761-1.58,1.44-2.96,1.44
		c-1.961,0-2.961-1.38-2.961-2.78c0-2.341,2.08-3.621,5.821-3.601v-0.2c0-0.8-0.22-2.24-2.2-2.24c-0.9,0-1.841,0.28-2.521,0.72
		l-0.4-1.16c0.8-0.521,1.96-0.86,3.181-0.86c2.961,0,3.681,2.021,3.681,3.961v3.621c0,0.84,0.04,1.66,0.16,2.32H376.404z
		 M376.145,548.926c-1.921-0.04-4.101,0.301-4.101,2.181c0,1.141,0.76,1.681,1.66,1.681c1.26,0,2.061-0.801,2.34-1.62
		c0.061-0.181,0.101-0.381,0.101-0.561V548.926z"/>
	<path style="fill:#FFFFFF;" d="M387.884,553.867h-1.74v-4.061h-1.3c-0.74,0-1.24,0.2-1.621,0.54c-0.72,0.58-0.979,1.78-1.359,2.721
		c-0.12,0.3-0.261,0.56-0.4,0.8h-1.881c0.221-0.32,0.42-0.68,0.601-1.101c0.42-0.939,0.66-2.2,1.521-2.92
		c0.3-0.261,0.66-0.48,1.1-0.561v-0.06c-1.26-0.141-2.561-0.921-2.561-2.401c0-1,0.54-1.68,1.28-2.1
		c0.801-0.461,1.98-0.66,3.241-0.66c1.16,0,2.28,0.1,3.12,0.199V553.867z M386.144,545.346c-0.439-0.061-0.84-0.101-1.46-0.101
		c-1.2,0-2.621,0.34-2.621,1.681c0,1.24,1.541,1.681,2.581,1.681c0.72,0,1.101,0,1.5,0V545.346z"/>
	<path style="fill:#FFFFFF;" d="M396.723,544.186v4.2h0.421l3.641-4.2h2.141l-4.222,4.381c1.561,0.16,2.501,1.2,3.261,2.94
		c0.261,0.64,0.601,1.58,1.041,2.36h-1.841c-0.26-0.42-0.6-1.181-0.9-1.98c-0.66-1.561-1.561-2.28-3.2-2.28h-0.341v4.261h-1.74
		v-9.682H396.723z"/>
	<path style="fill:#FFFFFF;" d="M410.124,553.867l-0.14-1.221h-0.061c-0.54,0.761-1.58,1.44-2.96,1.44
		c-1.961,0-2.961-1.38-2.961-2.78c0-2.341,2.08-3.621,5.821-3.601v-0.2c0-0.8-0.22-2.24-2.2-2.24c-0.9,0-1.841,0.28-2.521,0.72
		l-0.4-1.16c0.8-0.521,1.96-0.86,3.181-0.86c2.961,0,3.681,2.021,3.681,3.961v3.621c0,0.84,0.04,1.66,0.16,2.32H410.124z
		 M409.864,548.926c-1.921-0.04-4.101,0.301-4.101,2.181c0,1.141,0.76,1.681,1.66,1.681c1.26,0,2.061-0.801,2.34-1.62
		c0.061-0.181,0.101-0.381,0.101-0.561V548.926z"/>
	<path style="fill:#FFFFFF;" d="M414.402,547.346c0-1.24-0.04-2.24-0.08-3.16h1.581l0.08,1.66h0.04
		c0.72-1.181,1.86-1.881,3.44-1.881c2.341,0,4.101,1.98,4.101,4.921c0,3.481-2.12,5.201-4.4,5.201c-1.28,0-2.4-0.56-2.981-1.52
		h-0.04v5.261h-1.74V547.346z M416.143,549.927c0,0.26,0.04,0.5,0.08,0.72c0.32,1.221,1.381,2.061,2.641,2.061
		c1.86,0,2.941-1.521,2.941-3.741c0-1.94-1.021-3.601-2.881-3.601c-1.2,0-2.32,0.86-2.661,2.181c-0.06,0.22-0.12,0.48-0.12,0.72
		V549.927z"/>
	<path style="fill:#FFFFFF;" d="M432.164,544.186v1.399h-3.021v8.282h-1.741v-8.282h-3.021v-1.399H432.164z"/>
	<path style="fill:#FFFFFF;" d="M438.924,553.867l-0.14-1.221h-0.061c-0.54,0.761-1.58,1.44-2.96,1.44
		c-1.961,0-2.961-1.38-2.961-2.78c0-2.341,2.08-3.621,5.821-3.601v-0.2c0-0.8-0.22-2.24-2.2-2.24c-0.9,0-1.841,0.28-2.521,0.72
		l-0.4-1.16c0.8-0.521,1.96-0.86,3.181-0.86c2.961,0,3.681,2.021,3.681,3.961v3.621c0,0.84,0.04,1.66,0.16,2.32H438.924z
		 M438.664,548.926c-1.921-0.04-4.101,0.301-4.101,2.181c0,1.141,0.76,1.681,1.66,1.681c1.26,0,2.061-0.801,2.34-1.62
		c0.061-0.181,0.101-0.381,0.101-0.561V548.926z"/>
</g>
</svg>
