<?xml version="1.0" encoding="iso-8859-1"?>
<!-- Generator: Adobe Illustrator 21.0.0, SVG Export Plug-In . SVG Version: 6.00 Build 0)  -->
<svg version="1.1" id="Layer_1" xmlns="http://www.w3.org/2000/svg" xmlns:xlink="http://www.w3.org/1999/xlink" x="0px" y="0px"
	 viewBox="-49 141 512 512" style="enable-background:new -49 141 512 512;" xml:space="preserve">
<path style="fill:#FF6464;" d="M463,543.282c0,16.716-13.55,30.267-30.265,30.267h-451.47C-35.45,573.549-49,559.996-49,543.282
	V250.717c0-16.716,13.55-30.266,30.265-30.266h451.469c16.716,0,30.265,13.551,30.265,30.266v292.565H463z"/>
<rect x="-49" y="449.179" style="fill:#602929;" width="512" height="72.014"/>
<path style="opacity:0.15;fill:#202121;enable-background:new    ;" d="M-27.483,543.282V250.717
	c0-16.716,13.552-30.266,30.267-30.266h-21.52C-35.45,220.451-49,234.003-49,250.717v292.565c0,16.716,13.55,30.267,30.265,30.267
	h21.52C-13.93,573.549-27.483,559.996-27.483,543.282z"/>
</svg>
