<?xml version="1.0" encoding="iso-8859-1"?>
<!-- Generator: Adobe Illustrator 19.0.0, SVG Export Plug-In . SVG Version: 6.00 Build 0)  -->
<svg version="1.1" id="Layer_1" xmlns="http://www.w3.org/2000/svg" xmlns:xlink="http://www.w3.org/1999/xlink" x="0px" y="0px"
	 viewBox="0 0 511.992 511.992" style="enable-background:new 0 0 511.992 511.992;" xml:space="preserve">
<path style="fill:#434A54;" d="M267.464,10.671c0,5.891-4.781,10.656-10.671,10.656s-10.656-4.766-10.656-10.656
	S250.902,0,256.793,0S267.464,4.78,267.464,10.671z"/>
<path style="fill:#ED5564;" d="M460.208,386.347l-1.812-0.531c-26.467-7.094-35.436-13.922-47.217-18.406
	c-41.779-15.937-52.654-27.405-55.436-32.826c-0.109-0.203-0.188-0.406-0.281-0.609l-0.344-48.546l-99.122-1.125l-99.138,1.125
	l-0.344,48.546c-0.078,0.203-0.156,0.406-0.266,0.609c-2.781,5.421-13.656,16.89-55.451,32.826
	c-11.781,4.484-20.734,11.312-47.202,18.406l-1.812,0.531c-24.093,7.969-40.311,30.312-40.311,55.529v70.107h244.524h244.525
	v-70.107C500.52,416.659,484.302,394.316,460.208,386.347z"/>
<g>
	<polygon style="fill:#FFCE54;" points="157.186,287.725 156.247,334.584 229.09,397.035 269.683,348.302 	"/>
	<polygon style="fill:#FFCE54;" points="355.243,289.179 355.462,333.974 282.901,397.035 242.293,348.302 	"/>
</g>
<path style="fill:#EAC6BB;" d="M393.554,191.478c0,89.372-85.216,171.619-137.558,171.619c-52.358,0-137.559-82.247-137.559-171.619
	s61.592-148.34,137.559-148.34S393.554,102.106,393.554,191.478z"/>
<path style="fill:#FFCE54;" d="M255.996,10.671c-77.06,0-141.933,63.545-141.933,141.934l-0.016,39.39h283.882v-39.39
	C397.929,74.216,333.056,10.671,255.996,10.671z"/>
<path style="fill:#ED5564;" d="M255.996,127.996c125.184,0,154.214,54.576,154.214,54.576c2.75,5.172,0.203,9.422-5.656,9.422
	H107.437c-5.859,0-8.406-4.25-5.656-9.422C101.781,182.572,130.796,127.996,255.996,127.996z"/>
<path style="fill:#434A54;" d="M256.792,53.326c-17.671,0-31.999,14.328-31.999,31.999c0,17.672,14.328,31.999,31.999,31.999
	s32.015-14.327,32.015-31.999C288.808,67.654,274.464,53.326,256.792,53.326z M256.792,95.997c-5.875,0-10.656-4.781-10.656-10.672
	c0-5.875,4.781-10.656,10.656-10.656c5.89,0,10.671,4.781,10.671,10.656C267.464,91.216,262.683,95.997,256.792,95.997z"/>
<polygon style="fill:#E6E9ED;" points="352.837,383.988 160.841,383.988 107.516,426.596 107.516,464.267 406.179,471.549 
	406.179,426.596 "/>
<rect x="107.426" y="426.662" style="fill:#F5F7FA;" width="298.66" height="85.33"/>
<g>
</g>
<g>
</g>
<g>
</g>
<g>
</g>
<g>
</g>
<g>
</g>
<g>
</g>
<g>
</g>
<g>
</g>
<g>
</g>
<g>
</g>
<g>
</g>
<g>
</g>
<g>
</g>
<g>
</g>
</svg>
