<?xml version="1.0" encoding="iso-8859-1"?>
<!-- Generator: Adobe Illustrator 19.0.0, SVG Export Plug-In . SVG Version: 6.00 Build 0)  -->
<svg version="1.1" id="Layer_1" xmlns="http://www.w3.org/2000/svg" xmlns:xlink="http://www.w3.org/1999/xlink" x="0px" y="0px"
	 viewBox="0 0 512 512" style="enable-background:new 0 0 512 512;" xml:space="preserve">
<path style="fill:#FF7058;" d="M464,357.333H46.933c-11.733,0-21.333-9.6-21.333-21.333V21.333C25.6,9.6,35.2,0,46.933,0H464
	c11.733,0,21.333,9.6,21.333,21.333V336C485.333,347.733,475.733,357.333,464,357.333z"/>
<path style="fill:#ACB3BA;" d="M41.6,275.2H10.667C4.267,275.2,0,270.933,0,264.533v-58.667c0-6.4,4.267-10.667,10.667-10.667H41.6
	c6.4,0,10.667,4.267,10.667,10.667v58.667C52.267,270.933,46.933,275.2,41.6,275.2z"/>
<path style="fill:#CDD6E0;" d="M34.133,195.2h-16v-10.667c0-12.8,10.667-23.467,23.467-23.467H80v16H41.6
	c-4.267,0-7.467,3.2-7.467,7.467V195.2z"/>
<path style="fill:#ACB3BA;" d="M470.4,275.2h30.933c6.4,0,10.667-4.267,10.667-10.667v-58.667c0-6.4-4.267-10.667-10.667-10.667
	H470.4c-6.4,0-10.667,4.267-10.667,10.667v58.667C459.733,270.933,465.067,275.2,470.4,275.2z"/>
<path style="fill:#CDD6E0;" d="M477.867,195.2h16v-10.667c0-12.8-10.667-23.467-23.467-23.467H432v16h38.4
	c4.267,0,7.467,3.2,7.467,7.467V195.2z"/>
<path style="fill:#40596B;" d="M472.533,460.8H39.467c-11.733,0-22.4-9.6-22.4-22.4l0,0c0-11.733,9.6-22.4,22.4-22.4h433.067
	c11.733,0,22.4,9.6,22.4,22.4l0,0C493.867,451.2,484.267,460.8,472.533,460.8z"/>
<g>
	<path style="fill:#F2F2F2;" d="M471.467,417.067H40.533V306.133c0-11.733,9.6-21.333,21.333-21.333H451.2
		c11.733,0,21.333,9.6,21.333,21.333v110.933H471.467z"/>
	<path style="fill:#F2F2F2;" d="M450.133,284.8H60.8V162.133c0-29.867,20.267-55.467,50.133-62.933
		c94.933-22.4,195.2-22.4,290.133,0c28.8,6.4,50.133,33.067,50.133,62.933L450.133,284.8z"/>
</g>
<path style="fill:#54C0EB;" d="M82.133,263.467v-102.4c0-20.267,13.867-37.333,33.067-41.6c45.867-10.667,92.8-16,139.733-16
	s93.867,5.333,139.733,16c19.2,4.267,33.067,21.333,33.067,41.6v102.4H82.133z"/>
<g>
	<path style="fill:#ACB3BA;" d="M425.6,512h-29.867C384,512,374.4,502.4,374.4,490.667V460.8h72.533v29.867
		C446.933,502.4,437.333,512,425.6,512z"/>
	<path style="fill:#ACB3BA;" d="M116.267,512H86.4c-11.733,0-21.333-9.6-21.333-21.333V460.8H137.6v29.867
		C137.6,502.4,128,512,116.267,512z"/>
</g>
<g>
	<circle style="fill:#FFD15C;" cx="116.267" cy="350.933" r="38.4"/>
	<circle style="fill:#FFD15C;" cx="395.733" cy="350.933" r="38.4"/>
</g>
<rect x="171.733" y="309.333" style="fill:#CDD6E0;" width="168.533" height="83.2"/>
<g>
	<rect x="65.067" y="460.8" style="fill:#90A3AF;" width="72.533" height="16"/>
	<rect x="374.4" y="460.8" style="fill:#90A3AF;" width="72.533" height="16"/>
</g>
<g>
	<path style="fill:#84DBFF;" d="M247.467,104.533l-129.067,160H98.133l128-158.933C233.6,104.533,240,104.533,247.467,104.533z"/>
	<path style="fill:#84DBFF;" d="M292.267,105.6l-128,158.933h-32l129.067-160C270.933,104.533,281.6,104.533,292.267,105.6z"/>
</g>
<g>
	<path style="fill:#F8B64C;" d="M116.267,323.2c19.2,0,36.267,14.933,38.4,33.067c0-2.133,1.067-3.2,1.067-5.333
		c0-21.333-17.067-38.4-38.4-38.4s-38.4,17.067-38.4,38.4c0,2.133,0,3.2,1.067,5.333C81.067,338.133,97.067,323.2,116.267,323.2z"/>
	<path style="fill:#F8B64C;" d="M395.733,323.2c19.2,0,36.267,14.933,38.4,33.067c0-2.133,1.067-3.2,1.067-5.333
		c0-21.333-17.067-38.4-38.4-38.4c-21.333,0-38.4,17.067-38.4,38.4c0,2.133,0,3.2,1.067,5.333
		C359.467,338.133,375.467,323.2,395.733,323.2z"/>
</g>
<g>
</g>
<g>
</g>
<g>
</g>
<g>
</g>
<g>
</g>
<g>
</g>
<g>
</g>
<g>
</g>
<g>
</g>
<g>
</g>
<g>
</g>
<g>
</g>
<g>
</g>
<g>
</g>
<g>
</g>
</svg>
